<svg width="55" height="55" viewBox="0 0 55 55" fill="none" xmlns="http://www.w3.org/2000/svg">
<path d="M55 27.5C55 42.6878 42.6878 55 27.5 55C12.3122 55 0 42.6878 0 27.5C0 12.3122 12.3122 0 27.5 0C42.6878 0 55 12.3122 55 27.5Z" fill="white"/>
<path d="M54.1406 27.5C54.1406 12.7868 42.2132 0.859375 27.5 0.859375C12.7868 0.859375 0.859375 12.7868 0.859375 27.5C0.859375 42.2132 12.7868 54.1406 27.5 54.1406V55C12.3122 55 0 42.6878 0 27.5C0 12.3122 12.3122 0 27.5 0C42.6878 0 55 12.3122 55 27.5C55 42.6878 42.6878 55 27.5 55V54.1406C42.2132 54.1406 54.1406 42.2132 54.1406 27.5Z" fill="black"/>
<path d="M26.1622 33.8834C25.9646 33.8834 25.7927 33.8103 25.6466 33.6642C25.5091 33.5267 25.4404 33.3592 25.4404 33.1615V29.3072H21.5861C21.3884 29.3072 21.2165 29.2385 21.0704 29.101C20.9329 28.9549 20.8642 28.783 20.8642 28.5853C20.8642 28.3877 20.9329 28.2201 21.0704 28.0826C21.2165 27.9365 21.3884 27.8635 21.5861 27.8635H25.4404V24.0092C25.4404 23.8115 25.5091 23.6439 25.6466 23.5064C25.7927 23.3603 25.9646 23.2873 26.1622 23.2873C26.3599 23.2873 26.5275 23.3603 26.665 23.5064C26.8111 23.6439 26.8841 23.8115 26.8841 24.0092V27.8635H30.7384C30.9361 27.8635 31.1037 27.9365 31.2412 28.0826C31.3872 28.2201 31.4603 28.3877 31.4603 28.5853C31.4603 28.783 31.3872 28.9549 31.2412 29.101C31.1037 29.2385 30.9361 29.3072 30.7384 29.3072H26.8841V33.1615C26.8841 33.3592 26.8111 33.5267 26.665 33.6642C26.5275 33.8103 26.3599 33.8834 26.1622 33.8834Z" fill="black"/>
</svg>
