<svg width="16" height="15" viewBox="0 0 16 15" fill="none" xmlns="http://www.w3.org/2000/svg">
<path d="M3.496 13.552C2.76 14.288 2.128 14.4 1.6 13.888C1.088 13.36 1.2 12.728 1.936 11.992L6.448 7.48L1.936 2.968C1.584 2.6 1.376 2.256 1.312 1.936C1.248 1.6 1.344 1.312 1.6 1.072C2.112 0.559999 2.744 0.679999 3.496 1.432L8.008 5.944L12.544 1.408C13.296 0.655999 13.928 0.543999 14.44 1.072C14.952 1.584 14.832 2.216 14.08 2.968L9.568 7.48L14.056 11.992C14.808 12.744 14.928 13.376 14.416 13.888C13.904 14.4 13.272 14.28 12.52 13.528L8.008 9.04L3.496 13.552Z" fill="black"/>
</svg>
