<svg width="25" height="25" viewBox="0 0 25 25" fill="none" xmlns="http://www.w3.org/2000/svg">
<path d="M24.3661 1.62533C24.3653 1.62365 24.3644 1.62173 24.3638 1.61999C24.1639 1.14467 23.9126 0.696801 23.6186 0.279987C23.5536 0.187321 23.4917 0.0922317 23.4225 0.0033537L23.4223 0.00360224C23.4216 0.00242217 23.4208 0.00118007 23.4199 0L11.425 15.2573C11.2915 15.4271 11.0752 15.4271 10.9417 15.2573L7.63478 11.0509C5.91354 8.86153 3.31964 8.46142 1.27774 9.84707C1.27642 9.84801 1.2753 9.84925 1.27373 9.85018C0.893557 10.1086 0.535353 10.4351 0.202735 10.8177C0.136133 10.8942 0.0668947 10.9662 0.00283204 11.0473L0.00302735 11.0475C0.00209961 11.0487 0.000927736 11.0497 0 11.0509L10.8134 24.8051C11.0176 25.065 11.3491 25.065 11.5534 24.8051L23.4199 9.71112C25.1411 7.52177 25.4556 4.22242 24.3661 1.62533Z" fill="#4B4B4B"/>
<path d="M20 10V25H5V10H20ZM6 24H19V11H6V24Z" fill="black"/>
</svg>
