<svg width="37" height="32" viewBox="0 0 37 32" fill="none" xmlns="http://www.w3.org/2000/svg">
<path d="M15.5 3.5C23.8162 3.5 30.5 9.7989 30.5 17.5C30.5 25.2011 23.8162 31.5 15.5 31.5C7.1838 31.5 0.5 25.2011 0.5 17.5C0.500003 9.7989 7.1838 3.5 15.5 3.5Z" fill="white" stroke="black"/>
<path d="M15 25.62C14.6933 25.62 14.4267 25.5067 14.2 25.28C13.9867 25.0667 13.88 24.8067 13.88 24.5V18.52H7.9C7.59333 18.52 7.32667 18.4133 7.1 18.2C6.88667 17.9733 6.78 17.7067 6.78 17.4C6.78 17.0933 6.88667 16.8333 7.1 16.62C7.32667 16.3933 7.59333 16.28 7.9 16.28H13.88V10.3C13.88 9.99333 13.9867 9.73333 14.2 9.52C14.4267 9.29333 14.6933 9.18 15 9.18C15.3067 9.18 15.5667 9.29333 15.78 9.52C16.0067 9.73333 16.12 9.99333 16.12 10.3V16.28H22.1C22.4067 16.28 22.6667 16.3933 22.88 16.62C23.1067 16.8333 23.22 17.0933 23.22 17.4C23.22 17.7067 23.1067 17.9733 22.88 18.2C22.6667 18.4133 22.4067 18.52 22.1 18.52H16.12V24.5C16.12 24.8067 16.0067 25.0667 15.78 25.28C15.5667 25.5067 15.3067 25.62 15 25.62Z" fill="black"/>
</svg>
