<svg width="33" height="33" viewBox="0 0 33 33" fill="none" xmlns="http://www.w3.org/2000/svg">
<rect x="0.5" y="0.5" width="32" height="32" stroke="black"/>
<g clip-path="url(#clip0_239_23)">
<path d="M28.8753 9.52384C28.7509 8.87838 28.5312 8.24743 28.2184 7.65084C27.9063 7.05499 27.4982 6.4965 27.0007 5.99909C26.3384 5.3361 25.5649 4.83331 24.7417 4.49913C23.5065 4.00016 22.1622 3.87506 20.8713 4.12531C20.2258 4.25045 19.5941 4.4671 18.9983 4.78068C18.4039 5.09425 17.8439 5.50089 17.3465 5.99909L14.1116 9.23395C13.4586 9.88551 13.4586 10.9452 14.1116 11.5968C14.7647 12.2484 15.8221 12.2484 16.4745 11.5968L19.7093 8.36041C20.0526 8.01862 20.4425 7.76608 20.8614 7.59518C21.4885 7.34113 22.1813 7.27628 22.8412 7.40446C23.1708 7.46857 23.492 7.57995 23.7949 7.73864C24.097 7.89733 24.3808 8.10333 24.6387 8.36041C24.982 8.70602 25.2338 9.09513 25.4047 9.5132C25.6587 10.1403 25.7235 10.8339 25.5954 11.493C25.5313 11.8234 25.4199 12.1446 25.262 12.446C25.1018 12.7496 24.8965 13.0334 24.6387 13.2913L21.4038 16.5254C20.7515 17.1777 20.7515 18.2367 21.4038 18.8882C22.0561 19.5398 23.1136 19.5398 23.7659 18.8882L27.0007 15.6527C27.6645 14.9904 28.1665 14.2168 28.4999 13.3936C29.0004 12.1583 29.1248 10.814 28.8753 9.52384Z" fill="#4B4B4B"/>
<path d="M16.5263 21.4036L13.2907 24.6393C12.9466 24.9818 12.5568 25.2344 12.1387 25.4045C11.5115 25.6593 10.818 25.7242 10.1588 25.5968C9.82845 25.5319 9.50804 25.4198 9.20516 25.2619C8.90301 25.1024 8.61922 24.8957 8.36136 24.6393C8.01805 24.2944 7.76551 23.9054 7.59534 23.4865C7.34129 22.8602 7.27645 22.1666 7.40384 21.5059C7.46795 21.1763 7.58006 20.8551 7.73802 20.553C7.89822 20.2508 8.10345 19.967 8.36136 19.7084L11.597 16.4735C12.2486 15.822 12.2486 14.7638 11.597 14.1123C10.9439 13.46 9.8865 13.46 9.23416 14.1123L5.9993 17.3463C5.33553 18.0101 4.83353 18.7822 4.49935 19.6069C3.99964 20.8406 3.87527 22.1872 4.12474 23.475C4.2491 24.1205 4.46805 24.7522 4.78162 25.348C5.09441 25.9439 5.50184 26.5039 5.9993 27.0006C6.66307 27.6636 7.43514 28.1671 8.25838 28.499C9.4928 29.0003 10.8387 29.1247 12.128 28.8751C12.7742 28.75 13.4052 28.5311 14.0003 28.2183C14.5961 27.9062 15.1561 27.498 15.6535 27.0006L18.8884 23.7649C19.54 23.1134 19.54 22.0552 18.8884 21.4037C18.2353 20.7513 17.1779 20.7513 16.5263 21.4036Z" fill="#4B4B4B"/>
<path d="M20.7202 12.2796C20.0686 11.6281 19.0104 11.6281 18.3581 12.2796L12.2782 18.3587C11.6267 19.011 11.6267 20.0685 12.2782 20.72C12.9313 21.3731 13.9895 21.3731 14.6411 20.72L20.7202 14.6409C21.3732 13.9886 21.3732 12.9319 20.7202 12.2796Z" fill="#4B4B4B"/>
</g>
<defs>
<clipPath id="clip0_239_23">
<rect width="25" height="25" fill="white" transform="translate(4 4)"/>
</clipPath>
</defs>
</svg>
